# vertices : cube
# 3---7
# |\   \
# 1 4-5-8
#  \|   |
#   2---6
v -1 -1 -1
v -1 -1  1
v -1  1 -1
v -1  1  1
v  1 -1 -1
v  1 -1  1
v  1  1 -1
v  1  1  1
# 9-16 (1-8)
v -1 -1 -1
v -1 -1  1
v -1  1 -1
v -1  1  1
v  1 -1 -1
v  1 -1  1
v  1  1 -1
v  1  1  1
# 17-24 (1-8)
v -1 -1 -1
v -1 -1  1
v -1  1 -1
v -1  1  1
v  1 -1 -1
v  1 -1  1
v  1  1 -1
v  1  1  1

# texture
# 2 4
# 1 3
vt 0.0 0.0
vt 0.0 1.0
vt 1.0 0.0
vt 1.0 1.0

# normals : -z z -y y -x x
# back front down up left right
vn  0  0 -1
vn  0  0  1
vn  0 -1  0
vn  0  1  0
vn -1  0  0
vn  1  0  0

# faces : back front down up left right
# back
# 7 3
# 5 1
f 7/2/1 5/1/1 1/3/1
f 7/2/1 1/3/1 3/4/1

# front
# 4 8
# 2 6
f 4/2/2 2/1/2 6/3/2
f 4/2/2 6/3/2 8/4/2

# down
# 2 6
# 1 5
f 10/2/3  9/1/3 13/3/3
f 10/2/3 13/3/3 14/4/3

# up
# 3 7
# 4 8
f 11/2/4 12/1/4 16/3/4
f 11/2/4 16/3/4 15/4/4

# left
# 3 4
# 1 2
f 19/2/5 17/1/5 18/3/5
f 19/2/5 18/3/5 20/4/5

# right
# 8 7
# 6 5
f 24/2/6 22/1/6 21/3/6
f 24/2/6 21/3/6 23/4/6
